#!OML:ASF F:\VICON\USERDATA\Patient Classification 1\PLAYGROUND\JustinFriday\JustinFriday.ASF
:FULLY-SPECIFIED
:DEGREES
1833
root -12.2041 17.1876 11.004 263.961 84.4723 -81.6546
lowerback 18.794 0.282423 0.269732
upperback -0.203008 0.573424 0.764826
thorax -10.814 0.303786 0.522933
lowerneck 2.36498 -9.61018 -10.738
upperneck 13.4026 -13.4572 7.40568
head 4.8788 -6.73901 3.41801
rclavicle 2.88238e-015 -2.14687e-014
rhumerus 64.8541 -9.54513 -72.6526
rradius 90.5069
rwrist 13.903
rhand 0.833273 -377.917
rfingers 7.12502
rthumb 26.3883 -406.101
lclavicle 2.88238e-015 -2.14687e-014
lhumerus 69.0837 8.16435 64.7158
lradius 85.7562
lwrist -18.5458
lhand 20.4622 -9.81558
lfingers 7.12502
lthumb 44.9654 13.6976
rfemur -7.0956 -2.6812 24.7801
rtibia 63.6247
rfoot -1.92182 0.903969
rtoes 5.58236
lfemur -0.412361 5.60371 -7.93416
ltibia 67.7905
lfoot 11.2205 -8.79063
ltoes 6.41466
1834
root -12.0372 17.2046 10.987 262.584 84.5892 -82.6001
lowerback 18.4302 0.304672 0.211255
upperback -0.240434 0.593902 0.843527
thorax -10.6511 0.318341 0.638323
lowerneck 3.13428 -9.7836 -10.0682
upperneck 12.9187 -13.5947 6.17851
head 4.49121 -6.84648 2.98841
rclavicle -1.39149e-015 -1.59028e-015
rhumerus 64.5911 -9.64533 -72.3591
rradius 90.4546
rwrist 14.1116
rhand 1.62414 -377.407
rfingers 7.12502
rthumb 27.1451 -405.475
lclavicle -1.39149e-015 -1.59028e-015
lhumerus 69.2639 7.18806 66.8781
lradius 85.6497
lwrist -20.0005
lhand 21.8735 -10.5577
lfingers 7.12502
lthumb 46.2762 12.421
rfemur -7.20981 -2.72806 24.4519
rtibia 64.9988
rfoot -0.144085 0.872135
rtoes 7.38256
lfemur -0.552644 5.33781 -7.94663
ltibia 68.8028
lfoot 11.8652 -7.74362
ltoes 11.0066
1835
root -11.8696 17.2121 10.9681 261.768 84.3653 -82.7579
lowerback 18.3378 0.237942 0.670949
upperback -0.272231 0.607783 0.879817
thorax -10.6302 0.301153 0.412814
lowerneck 4.13663 -9.95407 -8.98356
upperneck 12.2506 -13.7234 4.78927
head 3.96814 -6.93309 2.47977
rclavicle 3.57812e-015 5.56597e-015
rhumerus 64.1873 -9.66595 -72.2145
rradius 90.5395
rwrist 13.9125
rhand 1.88772 -377.302
rfingers 7.12502
rthumb 27.3972 -405.331
lclavicle 3.57812e-015 5.56597e-015
lhumerus 67.9239 7.82037 63.6959
lradius 87.6756
lwrist -17.9295
lhand 21.2235 -7.33369
lfingers 7.12502
lthumb 45.6731 15.8957
rfemur -7.04028 -2.74956 24.527
rtibia 66.3035
rfoot 1.44866 0.761069
rtoes 8.56975
lfemur -0.347243 5.03748 -7.63786
ltibia 69.7389
lfoot 11.5617 -7.08557
ltoes 11.5304
1836
root -11.706 17.2093 10.9542 261.508 84.4353 -82.2159
lowerback 18.427 0.0741747 0.665631
upperback -0.144629 0.376514 0.737575
thorax -10.5362 0.189005 0.3221
lowerneck 4.45569 -10.0064 -7.0829
upperneck 11.5382 -13.6027 3.08117
head 3.80551 -6.86792 1.89846
rclavicle 2.68359e-015 1.59028e-014
rhumerus 64.1285 -9.38154 -72.6503
rradius 90.5862
rwrist 13.8501
rhand 1.77895 -377.437
rfingers 7.12502
rthumb 27.2932 -405.481
lclavicle 2.68359e-015 1.59028e-014
lhumerus 68.3129 7.05252 65.6345
lradius 86.446
lwrist -19.7607
lhand 21.7171 -9.00024
lfingers 7.12502
lthumb 46.1312 14.0395
rfemur -6.73904 -2.79297 24.3189
rtibia 67.6083
rfoot 2.72254 0.595698
rtoes 7.90361
lfemur 0.0870978 4.84194 -7.66124
ltibia 70.5672
lfoot 10.4839 -6.79507
ltoes 10.6113
1837
root -11.5459 17.1973 10.9462 261.186 84.6968 -81.7377
lowerback 18.4856 0.0325562 0.332112
upperback -0.0153234 0.245015 0.67447
thorax -10.4257 0.143785 0.478062
lowerneck 3.65067 -9.72698 -9.72759
upperneck 13.2489 -13.4751 5.42276
head 4.42683 -6.80753 2.74095
rclavicle -9.93923e-017 -6.36111e-015
rhumerus 64.0907 -9.19285 -72.8539
rradius 90.4811
rwrist 13.859
rhand 1.90019 -377.35
rfingers 7.12502
rthumb 27.4091 -405.376
lclavicle -9.93923e-017 -6.36111e-015
lhumerus 68.061 6.93633 66.5195
lradius 86.2157
lwrist -20.5416
lhand 21.9118 -9.87046
lfingers 7.12502
lthumb 46.3117 13.0931
rfemur -6.47249 -2.80022 23.9262
rtibia 68.9093
rfoot 3.53662 0.348883
rtoes 7.88629
lfemur 0.564711 4.96586 -7.80164
ltibia 71.3154
lfoot 8.94143 -7.08499
ltoes 7.77053
1838
root -11.3799 17.1876 10.9365 260.671 84.8955 -81.6127
lowerback 18.3529 -0.00519994 0.0323352
upperback 0.0279116 0.130565 0.684748
thorax -10.3022 0.105247 0.690571
lowerneck 3.55147 -9.57044 -10.4839
upperneck 13.5796 -13.3253 5.94494
head 4.61857 -6.74478 3.00601
rclavicle -2.18663e-015 1.15295e-014
rhumerus 63.8921 -8.99705 -72.9339
rradius 90.4899
rwrist 13.7632
rhand 2.15105 -377.114
rfingers 7.12502
rthumb 27.649 -405.102
lclavicle -2.18663e-015 1.15295e-014
lhumerus 67.2367 7.82971 64.5054
lradius 86.9514
lwrist -19.2459
lhand 21.1767 -8.50928
lfingers 7.12502
lthumb 45.6296 14.7379
rfemur -6.37195 -2.80014 23.5779
rtibia 70.1351
rfoot 3.92038 0.371875
rtoes 7.81029
lfemur 0.846968 5.40572 -7.80886
ltibia 72.0484
lfoot 7.11856 -7.7693
ltoes 2.47839
1839
root -11.2086 17.1861 10.9216 260.471 85.1534 -81.2672
lowerback 18.1393 0.0589957 -0.257514
upperback 0.0170278 0.14932 0.663646
thorax -10.1944 0.127214 0.827254
lowerneck 3.91881 -9.44356 -10.7525
upperneck 13.2619 -13.2083 6.19113
head 4.48477 -6.69762 3.15343
rclavicle -3.57812e-015 1.98785e-015
rhumerus 63.546 -9.13097 -72.7016
rradius 90.6142
rwrist 13.5575
rhand 2.19547 -376.976
rfingers 7.12502
rthumb 27.6915 -404.958
lclavicle -3.57812e-015 1.98785e-015
lhumerus 67.1979 7.2725 65.862
lradius 87.1224
lwrist -20.1351
lhand 22.0696 -9.20759
lfingers 7.12502
lthumb 46.458 13.6938
rfemur -6.33461 -2.72747 23.1562
rtibia 71.2655
rfoot 3.75307 0.439088
rtoes 8.09489
lfemur 0.931707 5.89419 -8.07189
ltibia 72.6913
lfoot 5.27823 -8.00615
ltoes -5.81253
1840
root -11.0361 17.1969 10.9009 260.899 85.0367 -80.2305
lowerback 17.9916 0.0905956 -0.0135107
upperback 0.0527724 0.241275 0.651572
thorax -10.0717 0.15805 0.650409
lowerneck 3.94944 -9.68927 -10.7203
upperneck 14.075 -13.5162 5.87777
head 4.73674 -6.85415 3.02016
rclavicle -2.48481e-015 -1.55052e-014
rhumerus 63.24 -9.44622 -72.4742
rradius 90.756
rwrist 13.3765
rhand 2.22271 -376.959
rfingers 7.12502
rthumb 27.7176 -404.936
lclavicle -2.48481e-015 -1.55052e-014
lhumerus 67.0854 6.97899 66.0044
lradius 87.3275
lwrist -20.2181
lhand 22.1763 -9.47034
lfingers 7.12502
lthumb 46.5569 13.3887
rfemur -6.09611 -2.65984 23.2169
rtibia 72.171
rfoot 3.10678 0.234921
rtoes 8.25152
lfemur 1.0829 5.11343 -7.90483
ltibia 73.3077
lfoot 5.9145 -6.07623
ltoes 8.15883
1841
root -10.8631 17.204 10.8849 261.886 84.881 -78.6097
lowerback 17.9081 0.0485572 0.213001
upperback 0.0673656 0.239432 0.715922
thorax -10.0078 0.147858 0.591925
lowerneck 3.96468 -9.47867 -11.0365
upperneck 14.099 -13.2655 6.12772
head 4.75716 -6.73631 3.15953
rclavicle 1.49089e-015 2.10712e-014
rhumerus 63.0172 -9.27736 -72.4888
rradius 90.9229
rwrist 13.4481
rhand 2.36575 -376.999
rfingers 7.12502
rthumb 27.8543 -404.954
lclavicle 1.49089e-015 2.10712e-014
lhumerus 66.7884 7.00098 65.7331
lradius 87.4587
lwrist -20.2057
lhand 22.065 -9.65977
lfingers 7.12502
lthumb 46.4537 13.2434
rfemur -5.83154 -2.54809 23.4072
rtibia 72.9933
rfoot 2.37306 -0.0284927
rtoes 7.37155
lfemur 1.33611 5.05049 -7.43544
ltibia 73.7588
lfoot 5.69974 -5.54081
ltoes 13.6926
1842
root -10.6899 17.2098 10.8754 262.615 84.9637 -77.2503
lowerback 17.8375 0.0522863 0.0540135
upperback 0.0958691 0.224241 0.840514
thorax -9.93742 0.152272 0.821876
lowerneck 4.06999 -9.23279 -11.3516
upperneck 14.0586 -12.9337 6.06753
head 4.71581 -6.59332 3.21542
rclavicle -1.68967e-015 -2.50469e-014
rhumerus 62.8615 -8.90646 -72.4215
rradius 91.0613
rwrist 13.6419
rhand 2.26986 -377.096
rfingers 7.12502
rthumb 27.7626 -405.066
lclavicle -1.68967e-015 -2.50469e-014
lhumerus 66.4764 7.03298 65.8792
lradius 87.5928
lwrist -20.2368
lhand 22.0275 -8.8901
lfingers 7.12502
lthumb 46.419 14.0279
rfemur -5.62692 -2.40958 23.3262
rtibia 73.7968
rfoot 1.68289 -0.292317
rtoes 7.11323
lfemur 1.65318 5.47537 -7.19725
ltibia 74.026
lfoot 4.96308 -6.00656
ltoes 10.809
